<svg xmlns="http://www.w3.org/2000/svg" viewBox="0 0 24 24">
  <path d="M21.066 16.552c3.782-3.781 3.782-9.934 0-13.716-3.781-3.781-9.934-3.781-13.716 0-3.208 3.208-3.694 7.98-1.459 11.705 0 0 .16.27-.056.486L.887 19.976c-.985.985-1.22 2.362-.346 3.235l.15.15c.874.874 2.25.64 3.236-.345l4.937-4.938c.228-.227.497-.067.497-.067 3.726 2.235 8.497 1.75 11.705-1.459zm-11.925-1.79c-2.794-2.795-2.794-7.34 0-10.135 2.794-2.794 7.34-2.794 10.134 0 2.795 2.794 2.795 7.34 0 10.135-2.794 2.794-7.34 2.794-10.134 0zm.619-5.643a1 1 0 01-.922-1.392 6.309 6.309 0 018.26-3.347 1.001 1.001 0 01-.78 1.843 4.304 4.304 0 00-5.636 2.284 1.001 1.001 0 01-.922.612z"/>
</svg>